<svg width="78" height="76" viewBox="0 0 78 76" fill="none" xmlns="http://www.w3.org/2000/svg">
<g clip-path="url(#clip0)">
<path d="M13.9149 61.8237C14.5245 61.9306 15.1054 61.5277 15.2135 60.9226C15.3219 60.3172 14.9159 59.7392 14.3069 59.6317C7.76247 58.4752 3.01237 52.8316 3.01237 46.2126C3.01237 38.6968 9.16332 32.5825 16.7241 32.5825C18.5273 32.5825 20.2503 32.931 21.8288 33.5628L21.1454 34.9228C19.7736 34.39 18.2833 34.0943 16.7241 34.0943C10.0021 34.0943 4.53342 39.5305 4.53342 46.2126C4.53342 52.8946 10.0021 58.3307 16.7241 58.3307C23.0682 58.3307 28.2937 53.4877 28.8611 47.3259H30.3886C29.8903 53.4556 25.3153 58.5407 19.1412 59.6317C18.5323 59.7393 18.1263 60.3172 18.2347 60.9226C18.3311 61.4621 18.8033 61.8411 19.336 61.8411C19.4011 61.8411 19.4671 61.8355 19.5332 61.8237C25.8071 60.715 30.6602 56.0624 32.1766 50.1524C32.8758 50.7933 33.745 51.253 34.7086 51.4562V53.7313H33.7275C33.1089 53.7313 32.6076 54.2296 32.6076 54.8446C32.6076 55.4596 33.1089 55.9579 33.7275 55.9579H37.9296C38.5483 55.9579 39.0496 55.4596 39.0496 54.8446C39.0496 54.2296 38.5483 53.7313 37.9296 53.7313H36.9487V51.4562C39.3865 50.9421 41.2214 48.7867 41.2214 46.2124C41.2214 45.0128 40.8228 43.9039 40.1506 43.0099L53.3977 28.4247L54.6603 31.7852C49.1573 34.2887 45.3243 39.8138 45.3243 46.2124C45.3243 54.9558 52.4802 62.0691 61.2759 62.0691C70.0716 62.0691 77.2275 54.9558 77.2275 46.2124C77.2275 37.4691 70.0716 30.3558 61.2759 30.3558C59.7072 30.3558 58.1911 30.5832 56.758 31.0046L52.924 20.7993H59.3406C59.7833 21.8704 60.8429 22.6273 62.078 22.6273C62.3176 22.6273 62.5127 22.8212 62.5127 23.0594C62.5127 23.2977 62.3176 23.4915 62.078 23.4915H60.7148C59.0832 23.4915 57.7558 24.8111 57.7558 26.4328C57.7558 28.0545 59.0834 29.374 60.7148 29.374H62.078C65.5809 29.374 68.4307 26.5412 68.4307 23.0593C68.4307 19.5773 65.5809 16.7445 62.078 16.7445C60.8429 16.7445 59.7833 17.5014 59.3406 18.5724H51.3103C50.5445 18.5724 49.9845 19.3363 50.2611 20.0752L51.397 23.0988H28.5568L27.8437 21.2008C28.298 20.9206 28.6846 20.5305 28.9573 20.0537C29.1366 19.7397 29.4738 19.5445 29.8373 19.5445H34.5996C35.9176 19.5445 36.8155 18.2156 36.319 17.003L36.3188 17.0028C35.5537 15.1362 33.7489 13.93 31.721 13.93H20.2474C18.7173 13.93 17.4725 15.1675 17.4725 16.6886C17.4725 19.446 19.7293 21.6893 22.5033 21.6893H25.6362L26.5598 24.1478L22.8326 31.5648C20.9502 30.7861 18.8869 30.3553 16.7242 30.3553C7.92838 30.3559 0.772453 37.4692 0.772453 46.2126C0.772453 53.9127 6.29966 60.4781 13.9149 61.8237ZM61.2759 32.5825C68.8367 32.5825 74.9876 38.6968 74.9876 46.2126C74.9876 53.7283 68.8367 59.8427 61.2759 59.8427C53.7152 59.8427 47.5642 53.7283 47.5642 46.2126C47.5642 40.768 50.7927 36.0595 55.4463 33.8776L55.9803 35.2989C51.9035 37.2616 49.0854 41.4159 49.0854 46.2126C49.0854 52.8946 54.5541 58.3307 61.2761 58.3307C66.9233 58.3307 71.7946 54.5235 73.1222 49.0723C73.2678 48.4748 72.8985 47.873 72.2973 47.7283C71.696 47.5831 71.0909 47.9508 70.9453 48.5483C69.8618 52.997 65.8857 56.1039 61.2761 56.1039C55.7893 56.1039 51.3253 51.6665 51.3253 46.2124C51.3253 42.3704 53.5418 39.0354 56.7691 37.3981L59.158 43.757C58.462 44.351 58.0197 45.2311 58.0197 46.2126C58.0197 47.9974 59.4804 49.4496 61.2761 49.4496C63.0717 49.4496 64.5326 47.9976 64.5326 46.2126C64.5326 44.4276 63.0717 42.9756 61.2761 42.9756C61.2692 42.9756 61.2625 42.976 61.2558 42.976L58.8664 36.6157C59.6384 36.4241 60.4452 36.3208 61.2762 36.3208C65.8858 36.3208 69.862 39.4279 70.9455 43.8766C71.0911 44.4739 71.696 44.8412 72.2975 44.6966C72.8987 44.5519 73.268 43.9502 73.1224 43.3526C71.7947 37.9012 66.9233 34.094 61.2762 34.094C60.1699 34.094 59.0987 34.244 58.0791 34.5198L57.5441 33.0954C58.7306 32.7615 59.9826 32.5825 61.2759 32.5825ZM61.2759 45.2023C61.8365 45.2023 62.2926 45.6556 62.2926 46.2127C62.2926 46.7698 61.8365 47.2232 61.2759 47.2232C60.7155 47.2232 60.2595 46.7698 60.2595 46.2127C60.2595 45.6556 60.7155 45.2023 61.2759 45.2023ZM23.8315 34.5603C27.4871 36.7719 30.025 40.635 30.3898 45.0994H28.8611C28.5044 41.2262 26.3075 37.8757 23.1481 35.92L23.8315 34.5603ZM19.782 45.0993C19.6285 44.6841 19.3911 44.309 19.0914 43.9933L22.1421 37.9223C24.572 39.4969 26.2701 42.0959 26.6101 45.0993H19.782ZM16.7241 45.2023C17.2845 45.2023 17.7405 45.6556 17.7405 46.2127C17.7405 46.7698 17.2845 47.2232 16.7241 47.2232C16.1635 47.2232 15.7074 46.7698 15.7074 46.2127C15.7074 45.6556 16.1635 45.2023 16.7241 45.2023ZM16.7241 56.1041C11.2373 56.1041 6.77333 51.6667 6.77333 46.2126C6.77333 40.7584 11.2373 36.3209 16.7241 36.3209C17.9239 36.3209 19.0748 36.5332 20.1408 36.9218L17.0881 42.9964C16.9685 42.983 16.8471 42.9756 16.7241 42.9756C14.9286 42.9756 13.4675 44.4276 13.4675 46.2126C13.4675 47.9976 14.9284 49.4496 16.7241 49.4496C18.1263 49.4496 19.3243 48.564 19.782 47.3259H26.6101C26.0515 52.2576 21.8321 56.1041 16.7241 56.1041ZM36.9487 49.1388V46.2126C36.9487 45.5976 36.4474 45.0993 35.8287 45.0993C35.2101 45.0993 34.7088 45.5976 34.7088 46.2126V49.1388C33.5222 48.6884 32.6758 47.5484 32.6758 46.2126C32.6758 44.4845 34.0903 43.0786 35.8287 43.0786C37.5672 43.0786 38.9815 44.4846 38.9815 46.2126C38.9815 47.5484 38.1351 48.6884 36.9487 49.1388ZM62.078 18.9716C64.3458 18.9716 66.1908 20.8054 66.1908 23.0597C66.1908 25.314 64.3458 27.1479 62.078 27.1479H60.7148C60.3183 27.1479 59.9957 26.8272 59.9957 26.4333C59.9957 26.0392 60.3183 25.7185 60.7148 25.7185H62.078C63.5527 25.7185 64.7526 24.5258 64.7526 23.0599C64.7526 21.5939 63.5527 20.4012 62.078 20.4012C61.6815 20.4012 61.359 20.0805 61.359 19.6864C61.359 19.2922 61.6815 18.9716 62.078 18.9716ZM52.2334 25.3258L52.5147 26.0745L38.4678 41.5403C37.6871 41.1029 36.7871 40.852 35.8289 40.852C35.6294 40.852 35.4327 40.8636 35.2387 40.8848L29.3935 25.3259H52.2334V25.3258ZM19.7123 16.6892C19.7123 16.3957 19.9522 16.1572 20.2473 16.1572H31.7209C32.6298 16.1572 33.4571 16.5988 33.9586 17.3185H29.8371C28.6697 17.3185 27.5863 17.9454 27.0096 18.9542C26.8301 19.2683 26.4928 19.4635 26.1293 19.4635H22.503C20.9644 19.4633 19.7123 18.2188 19.7123 16.6892ZM27.6309 26.9996L33.1108 41.5856C32.7748 41.7814 32.4618 42.0116 32.1772 42.2724C31.1143 38.1556 28.4254 34.6804 24.8349 32.5639L27.6309 26.9996Z" fill="url(#paint0_linear)"/>
</g>
<defs>
<linearGradient id="paint0_linear" x1="39" y1="13.93" x2="39" y2="62.0691" gradientUnits="userSpaceOnUse">
<stop stop-color="#FF8753"/>
<stop offset="1" stop-color="#FF879D"/>
</linearGradient>
<clipPath id="clip0">
<rect width="76.4551" height="76" fill="white" transform="translate(0.772453)"/>
</clipPath>
</defs>
</svg>
