<svg width="76" height="76" viewBox="0 0 76 76" fill="none" xmlns="http://www.w3.org/2000/svg">
<g clip-path="url(#clip0)">
<path d="M75.8535 41.5106C75.1711 34.647 72.1048 28.1764 67.219 23.2905C63.0437 19.1153 57.9332 16.4323 52.5559 15.2392V11.4677C54.7522 10.9213 56.3847 8.93322 56.3847 6.57021C56.3847 3.78726 54.1207 1.52325 51.3378 1.52325H40.6501C37.8671 1.52325 35.6031 3.78726 35.6031 6.57021C35.6031 8.93307 37.2357 10.9211 39.4319 11.4677V15.2498C34.0709 16.4478 28.9774 19.1272 24.8139 23.2906C23.9028 24.2017 23.0627 25.1575 22.2936 26.1509C22.2563 26.1481 22.2191 26.1453 22.1811 26.1453H11.6031C10.7834 26.1453 10.1187 26.8098 10.1187 27.6297C10.1187 28.4495 10.7834 29.1141 11.6031 29.1141H20.2738C19.1854 30.9362 18.3078 32.8497 17.6398 34.8195H1.4844C0.664714 34.8195 0 35.4841 0 36.3039C0 37.1237 0.664714 37.7883 1.4844 37.7883H16.801C16.3732 39.6662 16.1277 41.5774 16.0643 43.4939H9.50015C8.68046 43.4939 8.01575 44.1584 8.01575 44.9783C8.01575 45.7981 8.68046 46.4627 9.50015 46.4627H16.1117C16.2369 48.3841 16.5458 50.2954 17.0385 52.1682H7.42199C6.60231 52.1682 5.93759 52.8328 5.93759 53.6526C5.93759 54.4725 6.60231 55.137 7.42199 55.137H17.9859C19.4421 58.9892 21.7178 62.5997 24.8139 65.6959C29.7044 70.5864 36.1818 73.6534 43.0524 74.3322C44.033 74.429 45.0144 74.477 45.9944 74.477C51.7868 74.477 57.5056 72.8006 62.3581 69.6406C63.0451 69.1933 63.2394 68.2737 62.792 67.5867C62.3446 66.8997 61.425 66.7054 60.738 67.1528C50.1161 74.0696 35.8907 72.5741 26.9132 63.5966C16.3796 53.063 16.3796 35.9237 26.9132 25.39C37.4466 14.8566 54.5859 14.8566 65.1197 25.39C74.0853 34.3558 75.589 48.569 68.695 59.1857C68.2485 59.8733 68.444 60.7927 69.1314 61.2391C69.8193 61.6856 70.7384 61.4901 71.1848 60.8025C74.8681 55.1299 76.5262 48.2787 75.8535 41.5106ZM38.5719 6.57036C38.5719 5.4244 39.5041 4.4922 40.6501 4.4922H51.3378C52.4837 4.4922 53.4159 5.4244 53.4159 6.57036C53.4159 7.71631 52.4837 8.64851 51.3378 8.64851H51.0715H40.9162H40.6501C39.5041 8.64851 38.5719 7.71616 38.5719 6.57036ZM42.4007 14.7394V11.6173H49.5871V14.7341C47.2007 14.4503 44.7865 14.4521 42.4007 14.7394Z" fill="url(#paint0_linear)"/>
<path d="M66.17 63.1611C65.7781 63.1611 65.3966 63.32 65.1207 63.5961C64.8431 63.8721 64.6856 64.2551 64.6856 64.6455C64.6856 65.0359 64.8431 65.4189 65.1207 65.695C65.3966 65.9725 65.7783 66.1299 66.17 66.1299C66.5604 66.1299 66.9419 65.9725 67.2194 65.695C67.4955 65.4189 67.6544 65.0359 67.6544 64.6455C67.6544 64.2551 67.4957 63.8721 67.2194 63.5961C66.9419 63.32 66.5602 63.1611 66.17 63.1611Z" fill="url(#paint1_linear)"/>
<path d="M46.0165 21.4657C33.3192 21.4657 22.9891 31.7956 22.9891 44.493C22.9891 57.1904 33.3192 67.5203 46.0165 67.5203C58.7137 67.5203 69.0438 57.1904 69.0438 44.493C69.0438 31.7956 58.7137 21.4657 46.0165 21.4657ZM46.0165 64.5515C34.9561 64.5515 25.9579 55.5533 25.9579 44.493C25.9579 33.4328 34.9561 24.4345 46.0165 24.4345C57.0769 24.4345 66.075 33.4328 66.075 44.493C66.075 55.5533 57.0769 64.5515 46.0165 64.5515Z" fill="url(#paint2_linear)"/>
<path d="M55.4062 33.0041L48.0539 40.3562C47.4391 40.0522 46.7475 39.8804 46.0165 39.8804C45.2852 39.8804 44.5938 40.0522 43.979 40.3562L40.6885 37.0657C40.1087 36.486 39.1691 36.486 38.5891 37.0657C38.0095 37.6453 38.0095 38.5853 38.5891 39.1649L41.8796 42.4554C41.5754 43.0702 41.4038 43.7618 41.4038 44.4929C41.4038 47.0362 43.4729 49.1055 46.0165 49.1055C48.56 49.1055 50.6291 47.0362 50.6291 44.4929C50.6291 43.7618 50.4573 43.0702 50.1533 42.4554L57.2897 35.319L57.5054 35.1033C58.0851 34.5237 58.0851 33.5837 57.5054 33.0041C56.9257 32.4244 55.9861 32.4244 55.4062 33.0041ZM46.0165 46.1369C45.1101 46.1369 44.3726 45.3994 44.3726 44.493C44.3726 43.5867 45.1101 42.8492 46.0165 42.8492C46.9228 42.8492 47.6603 43.5867 47.6603 44.493C47.6603 45.3994 46.9228 46.1369 46.0165 46.1369Z" fill="url(#paint3_linear)"/>
<path d="M61.8875 43.0267H60.5123C59.6926 43.0267 59.0279 43.6913 59.0279 44.5111C59.0279 45.3309 59.6926 45.9955 60.5123 45.9955H61.8875C62.7072 45.9955 63.3719 45.3309 63.3719 44.5111C63.3719 43.6913 62.7072 43.0267 61.8875 43.0267Z" fill="url(#paint4_linear)"/>
<path d="M31.5205 42.9906H30.1454C29.3257 42.9906 28.661 43.6552 28.661 44.475C28.661 45.2948 29.3257 45.9594 30.1454 45.9594H31.5205C32.3402 45.9594 33.0049 45.2948 33.0049 44.475C33.0049 43.6552 32.3402 42.9906 31.5205 42.9906Z" fill="url(#paint5_linear)"/>
<path d="M46.0346 31.4815C46.8543 31.4815 47.519 30.817 47.519 29.9971V28.622C47.519 27.8022 46.8543 27.1376 46.0346 27.1376C45.2149 27.1376 44.5502 27.8022 44.5502 28.622V29.9971C44.5502 30.817 45.2149 31.4815 46.0346 31.4815Z" fill="url(#paint6_linear)"/>
<path d="M45.9983 57.5045C45.1786 57.5045 44.5139 58.1691 44.5139 58.9889V60.364C44.5139 61.1838 45.1786 61.8484 45.9983 61.8484C46.818 61.8484 47.4827 61.1838 47.4827 60.364V58.9889C47.4827 58.1691 46.818 57.5045 45.9983 57.5045Z" fill="url(#paint7_linear)"/>
<path d="M1.48438 52.1677C1.09398 52.1677 0.711016 52.3266 0.434922 52.6026C0.158828 52.8787 0 53.2617 0 53.6521C0 54.044 0.15868 54.4255 0.434922 54.7016C0.711164 54.9776 1.09398 55.1365 1.48438 55.1365C1.87477 55.1365 2.25773 54.9776 2.53368 54.7016C2.80977 54.4255 2.96875 54.0425 2.96875 53.6521C2.96875 53.2617 2.80992 52.8787 2.53368 52.6026C2.25773 52.3266 1.87477 52.1677 1.48438 52.1677Z" fill="url(#paint8_linear)"/>
</g>
<defs>
<linearGradient id="paint0_linear" x1="38" y1="1.52325" x2="38" y2="74.477" gradientUnits="userSpaceOnUse">
<stop stop-color="#F8814E"/>
<stop offset="1" stop-color="#FF879D"/>
</linearGradient>
<linearGradient id="paint1_linear" x1="66.17" y1="63.1611" x2="66.17" y2="66.1299" gradientUnits="userSpaceOnUse">
<stop stop-color="#F8814E"/>
<stop offset="1" stop-color="#FF879D"/>
</linearGradient>
<linearGradient id="paint2_linear" x1="46.0165" y1="21.4657" x2="46.0165" y2="67.5203" gradientUnits="userSpaceOnUse">
<stop stop-color="#F8814E"/>
<stop offset="1" stop-color="#FF879D"/>
</linearGradient>
<linearGradient id="paint3_linear" x1="48.0473" y1="32.5693" x2="48.0473" y2="49.1055" gradientUnits="userSpaceOnUse">
<stop stop-color="#F8814E"/>
<stop offset="1" stop-color="#FF879D"/>
</linearGradient>
<linearGradient id="paint4_linear" x1="61.1999" y1="43.0267" x2="61.1999" y2="45.9955" gradientUnits="userSpaceOnUse">
<stop stop-color="#F8814E"/>
<stop offset="1" stop-color="#FF879D"/>
</linearGradient>
<linearGradient id="paint5_linear" x1="30.833" y1="42.9906" x2="30.833" y2="45.9594" gradientUnits="userSpaceOnUse">
<stop stop-color="#F8814E"/>
<stop offset="1" stop-color="#FF879D"/>
</linearGradient>
<linearGradient id="paint6_linear" x1="46.0346" y1="27.1376" x2="46.0346" y2="31.4815" gradientUnits="userSpaceOnUse">
<stop stop-color="#F8814E"/>
<stop offset="1" stop-color="#FF879D"/>
</linearGradient>
<linearGradient id="paint7_linear" x1="45.9983" y1="57.5045" x2="45.9983" y2="61.8484" gradientUnits="userSpaceOnUse">
<stop stop-color="#F8814E"/>
<stop offset="1" stop-color="#FF879D"/>
</linearGradient>
<linearGradient id="paint8_linear" x1="1.48438" y1="52.1677" x2="1.48438" y2="55.1365" gradientUnits="userSpaceOnUse">
<stop stop-color="#F8814E"/>
<stop offset="1" stop-color="#FF879D"/>
</linearGradient>
<clipPath id="clip0">
<rect width="76" height="76" fill="white"/>
</clipPath>
</defs>
</svg>
