<svg width="76" height="76" viewBox="0 0 76 76" fill="none" xmlns="http://www.w3.org/2000/svg">
<g clip-path="url(#clip0)">
<path d="M69.1538 40.1918L66.3394 41.8421C65.1526 42.5383 63.6825 42.5303 62.503 41.821L59.8727 40.2397C57.2937 38.6888 54.0793 38.671 51.4833 40.1934L48.6719 41.8421C47.4847 42.5383 46.015 42.5301 44.8355 41.821L42.2052 40.2397C41.9401 40.0803 41.6678 39.9379 41.3906 39.8109V9.22482C41.3907 6.59346 43.5313 4.45313 46.1627 4.45313C48.794 4.45313 50.9345 6.59376 50.9345 9.22496V14.2589H55.3876V9.22482C55.3876 4.1383 51.2496 0 46.1628 0C41.076 0 36.9379 4.1383 36.9379 9.22482V26.9337H18.2203V9.22482C18.2203 6.59361 20.3609 4.45313 22.9921 4.45313C25.6233 4.45313 27.764 6.59376 27.764 9.22496V14.2589H32.2171V9.22482C32.2171 4.1383 28.0788 0 22.9921 0C17.9055 0 13.7673 4.1383 13.7673 9.22482V41.5897L13.3376 41.8418C12.1505 42.538 10.6804 42.5298 9.50122 41.8207L6.88827 40.2498L4.59357 44.0663L7.20652 45.6373C9.78369 47.187 12.9962 47.2047 15.5901 45.6834L18.4015 44.0347C19.5904 43.3375 21.0626 43.3456 22.2437 44.0559L24.874 45.6372C27.4512 47.187 30.6635 47.2047 33.2575 45.6834L36.0688 44.0347C37.2577 43.3375 38.7299 43.3456 39.9109 44.0559L42.5412 45.6372C43.8432 46.4201 45.3072 46.8119 46.7719 46.8119C48.2062 46.8119 49.6413 46.4361 50.925 45.6834L53.7364 44.0347C54.9253 43.3376 56.3975 43.3458 57.5784 44.0559L60.2089 45.6373C62.7861 47.1869 65.9986 47.2047 68.5924 45.6834L71.4068 44.033L69.1538 40.1918ZM36.9379 39.1295C35.8544 39.2671 34.7916 39.6215 33.8162 40.1935L31.0048 41.8422C29.8177 42.5384 28.3479 42.5303 27.1684 41.8212L24.5381 40.2399C22.6124 39.082 20.3324 38.7791 18.2202 39.3336V31.3869H18.2203H36.9379V39.1295Z" fill="url(#paint0_linear)"/>
<path d="M69.154 55.055L66.3396 56.7055C65.1527 57.4016 63.6828 57.3935 62.5032 56.6844L59.8727 55.1028C57.2938 53.5522 54.0792 53.5347 51.4835 55.0568L48.6721 56.7053C47.4852 57.4015 46.015 57.3933 44.8358 56.6842L42.2052 55.1028C39.6264 53.5518 36.4117 53.5344 33.8161 55.0566L31.0047 56.7052C29.8177 57.4015 28.3477 57.3933 27.1685 56.6841L24.538 55.1025C21.9588 53.5518 18.7442 53.5342 16.1488 55.0565L13.3373 56.705C12.1503 57.4011 10.6803 57.393 9.50112 56.6841L6.88817 55.1129L4.59332 58.9291L7.20672 60.5003C9.7839 62.0498 12.9962 62.0675 15.5902 60.5463L18.4016 58.8976C19.5903 58.2004 21.0625 58.2084 22.2436 58.9188L24.8741 60.5004C27.4514 62.0501 30.6637 62.0675 33.2575 60.5465L36.069 58.8978C37.2577 58.2001 38.7299 58.2084 39.9108 58.9188L42.5414 60.5004C43.8434 61.2831 45.3074 61.675 46.7719 61.675C48.2064 61.675 49.6414 61.299 50.9251 60.5463L53.7366 58.8976C54.9252 58.2005 56.3971 58.2083 57.5785 58.9188L60.2091 60.5004C62.7866 62.0501 65.9989 62.0675 68.5924 60.5465L71.4068 58.8961L69.154 55.055Z" fill="url(#paint1_linear)"/>
<path d="M69.1535 69.3795L66.3395 71.0301C65.1525 71.7261 63.6825 71.7183 62.5032 71.0089L59.8727 69.4274C57.2937 67.877 54.0792 67.8593 51.4834 69.3814L48.672 71.0301C47.485 71.7261 46.0153 71.718 44.8356 71.0089L42.2052 69.4276C39.6264 67.8765 36.4117 67.8593 33.8161 69.3814L31.0047 71.0301C29.8176 71.7261 28.3478 71.7183 27.1683 71.0089L24.538 69.4274C21.9587 67.8767 18.7441 67.8593 16.1487 69.3814L13.3373 71.0301C12.1502 71.7261 10.6803 71.7181 9.50092 71.0089L6.88827 69.4377L4.59357 73.2542L7.20652 74.8252C9.78369 76.3749 12.9962 76.3926 15.59 74.8714L18.4014 73.2227C19.5901 72.5256 21.0623 72.5336 22.2434 73.2438L24.8737 74.8251C27.4509 76.3749 30.6634 76.3927 33.2572 74.8712L36.0686 73.2225C37.2573 72.525 38.7294 72.5333 39.9106 73.2436L42.5409 74.8249C43.843 75.6079 45.3069 75.9998 46.7717 75.9998C48.2061 75.9997 49.6412 75.6238 50.9247 74.8711L53.7363 73.2224C54.9251 72.5252 56.3975 72.5335 57.5781 73.2435L60.2086 74.8249C62.7859 76.3746 65.9983 76.3924 68.5921 74.8711L71.4064 73.2208L69.1535 69.3795Z" fill="url(#paint2_linear)"/>
</g>
<defs>
<linearGradient id="paint0_linear" x1="38.0002" y1="0" x2="38.0002" y2="46.8121" gradientUnits="userSpaceOnUse">
<stop stop-color="#FF8753"/>
<stop offset="1" stop-color="#FF879D"/>
</linearGradient>
<linearGradient id="paint1_linear" x1="38.0001" y1="53.927" x2="38.0001" y2="61.6751" gradientUnits="userSpaceOnUse">
<stop stop-color="#FF8753"/>
<stop offset="1" stop-color="#FF879D"/>
</linearGradient>
<linearGradient id="paint2_linear" x1="38" y1="68.252" x2="38" y2="76" gradientUnits="userSpaceOnUse">
<stop stop-color="#FF8753"/>
<stop offset="1" stop-color="#FF879D"/>
</linearGradient>
<clipPath id="clip0">
<rect width="76" height="76" fill="white"/>
</clipPath>
</defs>
</svg>
